<?xml version="1.0" encoding="UTF-8"?>
<svg version="1.1" xmlns="http://www.w3.org/2000/svg" width="300" height="87">
<path d="M0 0 C0.33 10.89 0.66 21.78 1 33 C2.98 32.505 2.98 32.505 5 32 C5.33 33.98 5.66 35.96 6 38 C5.175 38.28875 4.35 38.5775 3.5 38.875 C0.80016908 40.71189096 0.80016908 40.71189096 0.59765625 43.28515625 C0.53823375 47.76825385 0.72358 51.05969069 3 55 C4.485 54.505 4.485 54.505 6 54 C6.98103288 51.05690137 7.15221687 49.0503097 7.20532227 45.9777832 C7.22526749 44.95695145 7.24521271 43.93611969 7.26576233 42.88435364 C7.28247482 41.78427475 7.29918732 40.68419586 7.31640625 39.55078125 C7.33718735 38.4230278 7.35796844 37.29527435 7.37937927 36.13334656 C7.44482847 32.5264604 7.50373844 28.91950071 7.5625 25.3125 C7.60568961 22.86913298 7.64930404 20.42577344 7.69335938 17.98242188 C7.80050516 11.98835926 7.90228029 5.99422329 8 0 C9.65 0 11.3 0 13 0 C13.07614689 7.58050086 13.1286408 15.16090284 13.16479492 22.74169922 C13.17986905 25.31986171 13.20033167 27.89799862 13.22631836 30.47607422 C13.26276086 34.18463461 13.27974052 37.89285554 13.29296875 41.6015625 C13.30845261 42.75177887 13.32393646 43.90199524 13.33988953 45.08706665 C13.34108497 50.78835754 13.33210288 55.12614766 10 60 C8 62 8 62 4.625 62.375 C1 62 1 62 -1.375 60.125 C-4.34209916 56.24494725 -4.11907572 53.09254499 -4.0625 48.375 C-4.05798828 47.66859375 -4.05347656 46.9621875 -4.04882812 46.234375 C-4.03703875 44.48954725 -4.01910324 42.744763 -4 41 C-5.14082031 40.81630859 -5.14082031 40.81630859 -6.3046875 40.62890625 C-10.07497503 39.74917249 -12.50422788 37.86153183 -15 35 C-18.89851034 27.72278071 -19.3854702 19.33053789 -17.30859375 11.33984375 C-13.74145962 2.39962055 -9.93860651 0 0 0 Z M-9.38671875 8.36328125 C-13.23860645 14.13532919 -14.11127598 19.13863546 -13 26 C-11.98703485 28.92577243 -10.95492566 30.50203943 -9 33 C-7.68 33.33 -6.36 33.66 -5 34 C-5 25.09 -5 16.18 -5 7 C-7.9675487 6.64947258 -7.9675487 6.64947258 -9.38671875 8.36328125 Z " fill="#E07228" transform="translate(192,24)"/>
<path d="M0 0 C3.17415501 3.17415501 4.89659727 5.89438138 5.12025452 10.44877625 C5.1169236 11.90438713 5.1169236 11.90438713 5.11352539 13.3894043 C5.11344986 14.49031906 5.11337433 15.59123383 5.11329651 16.72550964 C5.10813522 17.91308365 5.10297394 19.10065765 5.09765625 20.32421875 C5.0962413 21.54075638 5.09482635 22.75729401 5.09336853 24.01069641 C5.08776312 27.9029891 5.07520967 31.79522464 5.0625 35.6875 C5.0574857 38.32356688 5.05292267 40.95963466 5.04882812 43.59570312 C5.03779193 50.06382164 5.0210485 56.53190674 5 63 C3.35 63 1.7 63 0 63 C0 49.47 0 35.94 0 22 C-2.31 22 -4.62 22 -7 22 C-7 35.53 -7 49.06 -7 63 C-8.65 63 -10.3 63 -12 63 C-12 49.47 -12 35.94 -12 22 C-12.66 22 -13.32 22 -14 22 C-14.33 20.02 -14.66 18.04 -15 16 C-14.01 16 -13.02 16 -12 16 C-12.061875 14.989375 -12.12375 13.97875 -12.1875 12.9375 C-11.96949836 8.35946558 -11.12722417 6.01809011 -9 2 C-5.50434664 -0.33043558 -4.1134271 -0.58763244 0 0 Z M-4 6 C-6.47346304 8.47346304 -6.98313144 9.70761168 -7.1875 13.25 C-7.0946875 14.61125 -7.0946875 14.61125 -7 16 C-4.69 16 -2.38 16 0 16 C0.29562367 10.67829506 0.29562367 10.67829506 -2 6 C-2.66 6 -3.32 6 -4 6 Z " fill="#DF7225" transform="translate(258,23)"/>
<path d="M0 0 C3 1 3 1 4.03857422 2.79199219 C4.35584473 3.52063477 4.67311523 4.24927734 5 5 C5.78652838 6.44694389 6.58126362 7.88944752 7.3828125 9.328125 C7.82753906 10.12734375 8.27226563 10.9265625 8.73046875 11.75 C9.19066406 12.575 9.65085937 13.4 10.125 14.25 C10.59292969 15.09046875 11.06085938 15.9309375 11.54296875 16.796875 C12.69454523 18.86501235 13.84691391 20.93270406 15 23 C12.75 25.5 12.75 25.5 10 28 C8.68 28 7.36 28 6 28 C3 22.375 3 22.375 3 19 C-0.68232707 20.64735684 -1.82736338 21.59467925 -3.4375 25.375 C-4.02270789 29.14633972 -3.7966302 30.70617796 -2 34 C-1.505 33.505 -1.505 33.505 -1 33 C1.86267567 32.92674832 4.700719 32.90761795 7.5625 32.9375 C8.36880859 32.94201172 9.17511719 32.94652344 10.00585938 32.95117188 C12.00393756 32.96299482 14.00197783 32.98093086 16 33 C15.28260625 38.29631435 13.19331425 39.74804201 9 43 C8.34 43.99 7.68 44.98 7 46 C8.32 46.33 9.64 46.66 11 47 C11.33 48.65 11.66 50.3 12 52 C6.39 52 0.78 52 -5 52 C-5.495 50.515 -5.495 50.515 -6 49 C-4.75 47.5 -4.75 47.5 -3 46 C-1.68 46 -0.36 46 1 46 C0.505 44.515 0.505 44.515 0 43 C-0.61359375 42.855625 -1.2271875 42.71125 -1.859375 42.5625 C-5.55495517 41.59139864 -6.84684078 38.64464546 -8.7890625 35.5390625 C-10.67962742 31.57497476 -10.92807691 28.27383317 -10 24 C-8.46726477 20.1792687 -6.29318742 16.54473573 -3 14 C-2.34 14 -1.68 14 -1 14 C-1.680625 12.9275 -2.36125 11.855 -3.0625 10.75 C-5 7.33007117 -5 7.33007117 -5 4.75 C-3.67034314 2.42310049 -2.33397397 1.30427957 0 0 Z " fill="#3A317C" transform="translate(63,19)"/>
<path d="M0 0 C1.65 0 3.3 0 5 0 C6.95913784 6.22158638 8.04799072 12.51134465 9.125 18.9375 C9.30675781 20.00291016 9.48851562 21.06832031 9.67578125 22.16601562 C10.12066391 24.7767744 10.56197091 27.38808415 11 30 C11.33 30 11.66 30 12 30 C12.14622803 29.12674072 12.29245605 28.25348145 12.44311523 27.35375977 C12.98597004 24.12354756 13.53240134 20.89398353 14.08129883 17.66479492 C14.31842156 16.26529951 14.5541031 14.86555914 14.78833008 13.46557617 C15.12465635 11.45686216 15.46610396 9.44907732 15.80859375 7.44140625 C16.01282959 6.23170166 16.21706543 5.02199707 16.42749023 3.77563477 C17 1 17 1 18 0 C19.66617115 -0.04063832 21.33388095 -0.042721 23 0 C20.29817866 20.76542685 16.57772936 41.37190181 13 62 C12.01 62 11.02 62 10 62 C8.89492781 55.42080615 7.79253501 48.84116715 6.69189453 42.26123047 C6.31814424 40.02870829 5.9438088 37.79628398 5.56884766 35.56396484 C1.57478457 11.78065054 1.57478457 11.78065054 0 0 Z " fill="#E27324" transform="translate(264,24)"/>
<path d="M0 0 C1.49080078 0.02707031 1.49080078 0.02707031 3.01171875 0.0546875 C3.77097656 0.07789063 4.53023437 0.10109375 5.3125 0.125 C5.3125 2.105 5.3125 4.085 5.3125 6.125 C4.68601562 6.16238281 4.05953125 6.19976563 3.4140625 6.23828125 C2.18816406 6.33689453 2.18816406 6.33689453 0.9375 6.4375 C0.12539062 6.49550781 -0.68671875 6.55351563 -1.5234375 6.61328125 C-4.06671338 6.95490528 -4.06671338 6.95490528 -5.6875 10.125 C-5.85025591 18.85278577 -0.84235215 25.89103096 3.31054688 33.27441406 C7.7336168 41.18776789 11.73589842 48.423139 9.77172852 57.67114258 C8.31366011 62.78071184 6.17618353 67.278085 1.57421875 70.24609375 C-1.36476158 71.38818455 -3.79451759 71.3183257 -6.9375 71.25 C-8.01515625 71.23195313 -9.0928125 71.21390625 -10.203125 71.1953125 C-11.02296875 71.17210938 -11.8428125 71.14890625 -12.6875 71.125 C-12.6875 69.145 -12.6875 67.165 -12.6875 65.125 C-11.45773437 65.01285156 -11.45773437 65.01285156 -10.203125 64.8984375 C-3.44724906 64.18392908 -3.44724906 64.18392908 2.0625 60.5625 C3.90991355 55.48211275 4.27462972 50.85248785 2.45068359 45.68188477 C1.25795848 43.13107372 -0.02705837 40.65968232 -1.375 38.1875 C-2.25390625 36.51171875 -3.1328125 34.8359375 -4.01171875 33.16015625 C-5.37670938 30.58931512 -6.74384972 28.01974587 -8.11767578 25.45361328 C-8.56997559 24.58591309 -9.02227539 23.71821289 -9.48828125 22.82421875 C-9.89860596 22.04780029 -10.30893066 21.27138184 -10.73168945 20.47143555 C-12.92561354 15.08553403 -12.37459342 9.95724913 -10.375 4.625 C-7.4163822 0.24186251 -5.00917269 -0.11786289 0 0 Z " fill="#3B317C" transform="translate(12.6875,-0.125)"/>
<path d="M0 0 C6.75 0 6.75 0 9.875 2.5 C10.47054687 2.9640625 11.06609375 3.428125 11.6796875 3.90625 C12.11539063 4.2671875 12.55109375 4.628125 13 5 C13.33 3.35 13.66 1.7 14 0 C15.65 0 17.3 0 19 0 C19 15.51 19 31.02 19 47 C17.35 47 15.7 47 14 47 C14.00636475 46.00145996 14.01272949 45.00291992 14.01928711 43.97412109 C14.03377709 40.24988309 14.00228358 36.52717761 13.95727539 32.80322266 C13.94417971 31.19520293 13.94336118 29.58703247 13.95532227 27.97900391 C13.97040594 25.6589906 13.9405547 23.34311268 13.90234375 21.0234375 C13.91659897 20.31069672 13.93085419 19.59795593 13.94554138 18.86361694 C13.94587661 16.4865361 13.94587661 16.4865361 13 13 C10.69 11.02 8.38 9.04 6 7 C5.67 20.2 5.34 33.4 5 47 C3.35 47 1.7 47 0 47 C0 31.49 0 15.98 0 0 Z " fill="#372D7D" transform="translate(107,24)"/>
<path d="M0 0 C2.64 0 5.28 0 8 0 C8.33 1.65 8.66 3.3 9 5 C9.99 4.34 10.98 3.68 12 3 C14.48828125 3.05859375 14.48828125 3.05859375 17.3125 3.4375 C21.47684935 3.91673068 24.86993095 3.84719365 29 3 C29.66 3.33 30.32 3.66 31 4 C32.7325 3.7215625 32.7325 3.7215625 34.5 3.4375 C35.655 3.293125 36.81 3.14875 38 3 C38.66 3.66 39.32 4.32 40 5 C40.99 4.34 41.98 3.68 43 3 C45.00349261 3.31165441 47.00326516 3.64763503 49 4 C51.00401011 3.69169075 53.00511766 3.36270588 55 3 C55.66 3.33 56.32 3.66 57 4 C57.09765625 10.15234375 57.09765625 10.15234375 57 12 C56 13 56 13 53.0625 13.0625 C51.5465625 13.0315625 51.5465625 13.0315625 50 13 C49.34 13 48.68 13 48 13 C44.33333333 13 40.66666667 13 37 13 C37 10.69 37 8.38 37 6 C36.34 6.33 35.68 6.66 35 7 C34.34227572 10.02934491 34.34227572 10.02934491 34 13 C22.66666667 13 11.33333333 13 0 13 C-1.01603851 8.3008219 -1.01603851 4.6991781 0 0 Z M2 3 C2 3.66 2 4.32 2 5 C3.65 5 5.3 5 7 5 C7 4.34 7 3.68 7 3 C5.35 3 3.7 3 2 3 Z M13 6 C13.33 7.65 13.66 9.3 14 11 C15.65 10.34 17.3 9.68 19 9 C18.01 8.67 17.02 8.34 16 8 C16 7.34 16 6.68 16 6 C15.01 6 14.02 6 13 6 Z M43 6 C43.33 7.65 43.66 9.3 44 11 C45.65 10.34 47.3 9.68 49 9 C48.01 8.67 47.02 8.34 46 8 C46 7.34 46 6.68 46 6 C45.01 6 44.02 6 43 6 Z M2 8 C2.33 8.99 2.66 9.98 3 11 C4.32 10.67 5.64 10.34 7 10 C7 9.34 7 8.68 7 8 C5.35 8 3.7 8 2 8 Z M25 9 C25.66 9.66 26.32 10.32 27 11 C27.33 10.34 27.66 9.68 28 9 C27.01 9 26.02 9 25 9 Z M52 9 C52 9.66 52 10.32 52 11 C52.99 10.67 53.98 10.34 55 10 C54.01 9.67 53.02 9.34 52 9 Z " fill="#373737" transform="translate(22,73)"/>
<path d="M0 0 C5.54958514 0.44919798 10.31509392 0.41666374 15.80859375 -0.31640625 C18 -0.4375 18 -0.4375 21 0.5625 C21.99 0.3975 22.98 0.2325 24 0.0625 C27 -0.4375 27 -0.4375 30 0.5625 C32.00109278 0.23579097 34.00116131 -0.09727214 36 -0.4375 C36.66 -0.1075 37.32 0.2225 38 0.5625 C39.98687243 0.30192657 41.97357502 0.03932163 43.95703125 -0.24609375 C46.46252713 -0.48083428 48.58613759 -0.1163988 51 0.5625 C51 3.5325 51 6.5025 51 9.5625 C50.34 9.5625 49.68 9.5625 49 9.5625 C48.505 6.5925 48.505 6.5925 48 3.5625 C47.67 3.5625 47.34 3.5625 47 3.5625 C46.67 5.5425 46.34 7.5225 46 9.5625 C45.01 9.5625 44.02 9.5625 43 9.5625 C42.505 6.5925 42.505 6.5925 42 3.5625 C41.67 5.5425 41.34 7.5225 41 9.5625 C36.66666667 9.5625 32.33333333 9.5625 28 9.5625 C26.31390625 9.61470703 26.31390625 9.61470703 24.59375 9.66796875 C23.22917854 9.69589858 21.86459448 9.72321824 20.5 9.75 C19.81035156 9.77513672 19.12070313 9.80027344 18.41015625 9.82617188 C16.40625 9.85546875 16.40625 9.85546875 13 9.5625 C12.34 8.5725 11.68 7.5825 11 6.5625 C10.67 7.5525 10.34 8.5425 10 9.5625 C9.2575 9.376875 8.515 9.19125 7.75 9 C5.05009037 8.57046892 3.55368923 8.71127026 1 9.5625 C0.67 8.5725 0.34 7.5825 0 6.5625 C-0.33 7.5525 -0.66 8.5425 -1 9.5625 C-3.33294775 9.60491723 -5.66702567 9.60342937 -8 9.5625 C-9 8.5625 -9 8.5625 -9.09765625 6.71484375 C-9.06510417 4.6640625 -9.03255208 2.61328125 -9 0.5625 C-5.97404889 -0.95047555 -3.33992194 -0.27718614 0 0 Z M32 2.5625 C32.33 4.2125 32.66 5.8625 33 7.5625 C33.66 7.2325 34.32 6.9025 35 6.5625 C35 5.2425 35 3.9225 35 2.5625 C34.01 2.5625 33.02 2.5625 32 2.5625 Z M14 5.5625 C14.33 6.2225 14.66 6.8825 15 7.5625 C15.99 7.2325 16.98 6.9025 18 6.5625 C16.68 6.2325 15.36 5.9025 14 5.5625 Z M22 5.5625 C23.98 6.5525 23.98 6.5525 26 7.5625 C25.67 6.9025 25.34 6.2425 25 5.5625 C24.01 5.5625 23.02 5.5625 22 5.5625 Z " fill="#343433" transform="translate(112,76.4375)"/>
<path d="M0 0 C5.94 0 11.88 0 18 0 C18 1.98 18 3.96 18 6 C16.02 6 14.04 6 12 6 C12 24.48 12 42.96 12 62 C10.02 62 8.04 62 6 62 C6 43.52 6 25.04 6 6 C4.02 6 2.04 6 0 6 C0 4.02 0 2.04 0 0 Z " fill="#D9752D" transform="translate(206,24)"/>
<path d="M0 0 C1.22589844 0.01353516 1.22589844 0.01353516 2.4765625 0.02734375 C3.41628906 0.04474609 3.41628906 0.04474609 4.375 0.0625 C4.375 2.0425 4.375 4.0225 4.375 6.0625 C2.6734375 6.2790625 2.6734375 6.2790625 0.9375 6.5 C-2.43277201 6.67421478 -2.43277201 6.67421478 -3.625 8.0625 C-4.60332719 17.14537855 -0.78426617 25.26884916 2.17578125 33.70898438 C7.12931663 48.32584511 7.12931663 48.32584511 4.125 56.4375 C2.33896336 59.11655496 1.10344994 60.40525488 -1.625 62.0625 C-4.203125 62.35546875 -4.203125 62.35546875 -6.875 62.25 C-8.21304688 62.20939453 -8.21304688 62.20939453 -9.578125 62.16796875 C-10.25359375 62.13316406 -10.9290625 62.09835938 -11.625 62.0625 C-11.625 60.0825 -11.625 58.1025 -11.625 56.0625 C-10.366875 55.98 -9.10875 55.8975 -7.8125 55.8125 C-5.07600923 55.44375302 -3.82979839 55.21144428 -1.5625 53.5625 C1.54157264 45.28497297 -3.93064987 34.92592419 -6.83007812 27.20898438 C-9.318519 20.20265084 -10.82201132 13.51215112 -9.625 6.0625 C-7.07219527 0.99289562 -5.57649527 -0.07966422 0 0 Z " fill="#E27326" transform="translate(236.625,23.9375)"/>
<path d="M0 0 C4.62 0 9.24 0 14 0 C14 1.65 14 3.3 14 5 C11.36 5 8.72 5 6 5 C6 6.98 6 8.96 6 11 C8.64 11 11.28 11 14 11 C14.33 12.65 14.66 14.3 15 16 C12.03 16 9.06 16 6 16 C6 24.58 6 33.16 6 42 C8.64 42 11.28 42 14 42 C14 43.65 14 45.3 14 47 C9.38 47 4.76 47 0 47 C0 36.77 0 26.54 0 16 C-0.66 16 -1.32 16 -2 16 C-2.33 14.68 -2.66 13.36 -3 12 C-2.01 11.67 -1.02 11.34 0 11 C0 7.37 0 3.74 0 0 Z " fill="#392F7C" transform="translate(84,24)"/>
<path d="M0 0 C4.62 0 9.24 0 14 0 C14 1.65 14 3.3 14 5 C11.03 5 8.06 5 5 5 C5 6.98 5 8.96 5 11 C7.97 11 10.94 11 14 11 C14.33 12.65 14.66 14.3 15 16 C12.03 16.33 9.06 16.66 6 17 C6 24.92 6 32.84 6 41 C8.64 41.33 11.28 41.66 14 42 C14 43.65 14 45.3 14 47 C9.38 47 4.76 47 0 47 C0 36.77 0 26.54 0 16 C-0.66 16 -1.32 16 -2 16 C-2.33 14.68 -2.66 13.36 -3 12 C-2.01 11.67 -1.02 11.34 0 11 C0 7.37 0 3.74 0 0 Z " fill="#3C327C" transform="translate(158,24)"/>
<path d="M0 0 C0 1.65 0 3.3 0 5 C-1.58298026 5.4803318 -3.16639978 5.95921612 -4.75 6.4375 C-5.63171875 6.70433594 -6.5134375 6.97117187 -7.421875 7.24609375 C-9.02049648 7.71356943 -10.63365702 8.13679988 -12.26171875 8.48828125 C-14.17059226 8.83820805 -14.17059226 8.83820805 -15.0625 10.75 C-15.371875 11.4925 -15.68125 12.235 -16 13 C-16.75796875 14.12341797 -16.75796875 14.12341797 -17.53125 15.26953125 C-20.05940897 19.96948636 -19.62762175 24.80272772 -19 30 C-16.71255981 34.92679425 -13.77665781 37.47648267 -9 40 C-6.0268622 40.8564194 -3.04964091 41.48494954 0 42 C0 43.65 0 45.3 0 47 C-7.37098885 47.38794678 -12.0250596 46.09995793 -18.1875 41.75 C-23.5830067 36.47439345 -25.58371887 31.24606755 -26.3125 23.8125 C-25.73744704 16.79685393 -23.51566265 10.98463245 -18.375 6.0625 C-12.92381439 1.73421779 -6.89619537 0 0 0 Z " fill="#3A307A" transform="translate(154,24)"/>
<path d="M0 0 C0 1.65 0 3.3 0 5 C-0.65226562 5.08636719 -1.30453125 5.17273438 -1.9765625 5.26171875 C-9.4128297 6.45722483 -13.10052554 8.30067052 -17.8125 14.3125 C-20.08424804 19.45382451 -20.63564777 23.88554934 -18.875 29.1875 C-16.98143249 33.58853135 -14.1998856 36.55869564 -10.1875 39.1875 C-6.8567423 40.42463858 -3.459663 41.1927453 0 42 C-0.33 43.65 -0.66 45.3 -1 47 C-8.8522099 46.80005947 -13.96277952 44.67915215 -19.76171875 39.39453125 C-24.62311296 34.25063471 -25.69748026 29.38822114 -26.3125 22.5 C-25.62181981 14.76438186 -22.86535293 9.99959183 -17.1796875 4.69921875 C-11.82875382 0.52779196 -6.64755647 -0.41547228 0 0 Z " fill="#3D337D" transform="translate(52,25)"/>
<path d="M0 0 C0.66 0 1.32 0 2 0 C2.66 17.49 3.32 34.98 4 53 C2.68 53 1.36 53 0 53 C0 35.51 0 18.02 0 0 Z " fill="#E87224" transform="translate(213,32)"/>
<path d="M0 0 C0.33 0 0.66 0 1 0 C1.33 3.63 1.66 7.26 2 11 C2.66 10.67 3.32 10.34 4 10 C4.33 15.28 4.66 20.56 5 26 C7.97 26 10.94 26 14 26 C14 27.65 14 29.3 14 31 C9.38 31 4.76 31 0 31 C0 20.77 0 10.54 0 0 Z " fill="#443B86" transform="translate(84,40)"/>
<path d="M0 0 C2.09230769 4.43076923 2.09230769 4.43076923 1.625 7.3125 C1.41875 7.869375 1.2125 8.42625 1 9 C0.34 9 -0.32 9 -1 9 C-1 9.99 -1 10.98 -1 12 C-3.31 12 -5.62 12 -8 12 C-8 11.34 -8 10.68 -8 10 C-8.99 10 -9.98 10 -11 10 C-11.33 7.69 -11.66 5.38 -12 3 C-11.34 3 -10.68 3 -10 3 C-10 2.01 -10 1.02 -10 0 C-6.30581799 -1.231394 -3.7943739 -0.64432764 0 0 Z " fill="#EFCE5B" transform="translate(70,6)"/>
<path d="M0 0 C2 2 2 2 2.265625 3.875 C2.26046875 4.57625 2.2553125 5.2775 2.25 6 C2.25515625 6.70125 2.2603125 7.4025 2.265625 8.125 C2 10 2 10 0 12 C-6.16 12.56 -6.16 12.56 -8.875 10.75 C-10.20345668 8.68351183 -10.85463211 7.47125406 -11 5 C-8.13836705 -0.85953414 -6.26029982 -1.43465204 0 0 Z M-1 3 C-1.33 4.32 -1.66 5.64 -2 7 C-1.01 7.495 -1.01 7.495 0 8 C0 6.35 0 4.7 0 3 C-0.33 3 -0.66 3 -1 3 Z M-8 4 C-7 8 -7 8 -7 8 Z M-5 7 C-5 7.99 -5 8.98 -5 10 C-4.34 9.67 -3.68 9.34 -3 9 C-3.66 8.34 -4.32 7.68 -5 7 Z " fill="#434142" transform="translate(298,16)"/>
<path d="M0 0 C0.09765625 6.15234375 0.09765625 6.15234375 0 8 C-1 9 -1 9 -3.50390625 9.09765625 C-5.01791016 9.08025391 -5.01791016 9.08025391 -6.5625 9.0625 C-7.57441406 9.05347656 -8.58632812 9.04445313 -9.62890625 9.03515625 C-10.41136719 9.02355469 -11.19382812 9.01195313 -12 9 C-12 6.03 -12 3.06 -12 0 C-7.66726186 -0.92844389 -4.33273814 -0.92844389 0 0 Z M-6 5 C-5.67 5.66 -5.34 6.32 -5 7 C-4.34 6.67 -3.68 6.34 -3 6 C-3.99 5.67 -4.98 5.34 -6 5 Z " fill="#343434" transform="translate(97,77)"/>
<path d="M0 0 C1.32 0 2.64 0 4 0 C3.93288818 0.56017822 3.86577637 1.12035645 3.79663086 1.69750977 C2.84112722 10.3247634 2.67065734 18.95434859 2.48242188 27.62695312 C2.44826172 28.79033203 2.41410156 29.95371094 2.37890625 31.15234375 C2.3538501 32.20413818 2.32879395 33.25593262 2.30297852 34.33959961 C2 37 2 37 0 40 C0 26.8 0 13.6 0 0 Z " fill="#E3721F" transform="translate(201,25)"/>
<path d="M0 0 C2.64 0 5.28 0 8 0 C8.33 1.65 8.66 3.3 9 5 C8.34 5 7.68 5 7 5 C7.33 6.32 7.66 7.64 8 9 C5.03 8.505 5.03 8.505 2 8 C3.32 9.65 4.64 11.3 6 13 C4.02 13 2.04 13 0 13 C-1.01603851 8.3008219 -1.01603851 4.6991781 0 0 Z M2 3 C2 3.66 2 4.32 2 5 C3.65 5 5.3 5 7 5 C7 4.34 7 3.68 7 3 C5.35 3 3.7 3 2 3 Z " fill="#343434" transform="translate(22,73)"/>
<path d="M0 0 C0.09765625 6.15234375 0.09765625 6.15234375 0 8 C-1 9 -1 9 -4 9.125 C-7 9 -7 9 -8 8 C-8.14115161 5.32941149 -8.04247107 2.67567762 -8 0 C-5.13822943 -1.43088528 -3.06624227 -0.59991697 0 0 Z M-5 5 C-4.67 5.66 -4.34 6.32 -4 7 C-3.67 6.34 -3.34 5.68 -3 5 C-3.66 5 -4.32 5 -5 5 Z " fill="#2D2D2D" transform="translate(172,77)"/>
<path d="M0 0 C5.94 0 11.88 0 18 0 C18 1.98 18 3.96 18 6 C16.02 6 14.04 6 12 6 C12 5.67 12 5.34 12 5 C13.65 5 15.3 5 17 5 C17 3.68 17 2.36 17 1 C14.36 1.33 11.72 1.66 9 2 C8.67 2.99 8.34 3.98 8 5 C5.29120665 6.35439668 2.99066732 6.06501451 0 6 C0 4.02 0 2.04 0 0 Z " fill="#DA722D" transform="translate(206,24)"/>
<path d="M0 0 C0 1.65 0 3.3 0 5 C-4.62 5 -9.24 5 -14 5 C-14 4.01 -14 3.02 -14 2 C-9.07262981 0.02905192 -5.21979128 -0.1799928 0 0 Z " fill="#352A79" transform="translate(172,66)"/>
<path d="M0 0 C0 1.65 0 3.3 0 5 C-2.88211302 5.96070434 -4.69850044 6.10581883 -7.6875 6.0625 C-8.89986328 6.04896484 -8.89986328 6.04896484 -10.13671875 6.03515625 C-11.05904297 6.01775391 -11.05904297 6.01775391 -12 6 C-12 4.68 -12 3.36 -12 2 C-10.7625 1.67 -9.525 1.34 -8.25 1 C-7.55390625 0.814375 -6.8578125 0.62875 -6.140625 0.4375 C-4 0 -4 0 0 0 Z " fill="#4A3F85" transform="translate(154,24)"/>
<path d="M0 0 C1.65 0 3.3 0 5 0 C5 1.65 5 3.3 5 5 C2.36 5 -0.28 5 -3 5 C-3 6.98 -3 8.96 -3 11 C-0.36 11 2.28 11 5 11 C5.33 12.65 5.66 14.3 6 16 C3.03 16 0.06 16 -3 16 C-3 15.67 -3 15.34 -3 15 C-1.35 15 0.3 15 2 15 C2 14.01 2 13.02 2 12 C-0.31 12 -2.62 12 -5 12 C-5.04241723 9.66705225 -5.04092937 7.33297433 -5 5 C-4 4 -4 4 -2.15234375 3.90234375 C-0.1015625 3.93489583 1.94921875 3.96744792 4 4 C4 3.01 4 2.02 4 1 C2.68 0.67 1.36 0.34 0 0 Z " fill="#362D71" transform="translate(93,24)"/>
<path d="M0 0 C0.33 0 0.66 0 1 0 C1 12.87 1 25.74 1 39 C-0.65 39 -2.3 39 -4 39 C-4 36.03 -4 33.06 -4 30 C-3.67 30 -3.34 30 -3 30 C-2.34 31.98 -1.68 33.96 -1 36 C-0.67 24.12 -0.34 12.24 0 0 Z " fill="#383073" transform="translate(111,32)"/>
<path d="M0 0 C-0.875 6.875 -0.875 6.875 -2 8 C-3.99958364 8.04080783 -6.00045254 8.04254356 -8 8 C-8.66 5.69 -9.32 3.38 -10 1 C-9.01 1 -8.02 1 -7 1 C-6.34 0.649375 -5.68 0.29875 -5 -0.0625 C-3 -1 -3 -1 0 0 Z M-7 4 C-6.67 4.66 -6.34 5.32 -6 6 C-5.01 5.67 -4.02 5.34 -3 5 C-4.32 4.67 -5.64 4.34 -7 4 Z " fill="#2F2F2F" transform="translate(133,78)"/>
<path d="M0 0 C2.97 0.33 5.94 0.66 9 1 C9 2.65 9 4.3 9 6 C4.07872966 6.16682272 0.49656104 6.24828052 -4 4 C-2.68 3.67 -1.36 3.34 0 3 C0 2.01 0 1.02 0 0 Z " fill="#342B6F" transform="translate(145,65)"/>
<path d="M0 0 C5.61 0 11.22 0 17 0 C17 0.99 17 1.98 17 3 C11.39 3 5.78 3 0 3 C0 2.01 0 1.02 0 0 Z " fill="#352C6D" transform="translate(62,52)"/>
<path d="M0 0 C1.65 0.33 3.3 0.66 5 1 C4.67 3.97 4.34 6.94 4 10 C1.03 9.505 1.03 9.505 -2 9 C-1.34 6.03 -0.68 3.06 0 0 Z " fill="#3D3381" transform="translate(18,50)"/>
<path d="M0 0 C0.99 0.33 1.98 0.66 3 1 C3 2.65 3 4.3 3 6 C4.65 5.67 6.3 5.34 8 5 C8 6.32 8 7.64 8 9 C5.66705225 9.04241723 3.33297433 9.04092937 1 9 C0 8 0 8 -0.09765625 6.15234375 C-0.06510417 4.1015625 -0.03255208 2.05078125 0 0 Z " fill="#323132" transform="translate(103,77)"/>
<path d="M0 0 C3.25543229 0.34879632 4.01873107 1.02133261 6.25 3.5625 C7.11625 4.7690625 7.11625 4.7690625 8 6 C7.34 6 6.68 6 6 6 C6 6.66 6 7.32 6 8 C5.01 8.33 4.02 8.66 3 9 C0.9375 6.75 0.9375 6.75 -1 4 C-0.75 1.6875 -0.75 1.6875 0 0 Z " fill="#403587" transform="translate(31,57)"/>
<path d="M0 0 C1.9453125 -0.29296875 1.9453125 -0.29296875 4.125 -0.1875 C5.40375 -0.125625 6.6825 -0.06375 8 0 C8 1.65 8 3.3 8 5 C3.38 5 -1.24 5 -6 5 C-6 4.67 -6 4.34 -6 4 C-1.71 4 2.58 4 7 4 C6.01732141 2.79438816 6.01732141 2.79438816 4.15234375 2.90234375 C2.1015625 2.93489583 0.05078125 2.96744792 -2 3 C-1.34 2.01 -0.68 1.02 0 0 Z " fill="#332972" transform="translate(90,66)"/>
<path d="M0 0 C0.33 0.66 0.66 1.32 1 2 C3.32156597 2.40729228 5.6568787 2.74438677 8 3 C8 3.99 8 4.98 8 6 C1.07 5.505 1.07 5.505 -6 5 C-3.5 0 -3.5 0 0 0 Z " fill="#EC6E13" transform="translate(252,39)"/>
<path d="M0 0 C0.66 0 1.32 0 2 0 C2 0.99 2 1.98 2 3 C2.61875 3.309375 3.2375 3.61875 3.875 3.9375 C5.25 4.625 6.625 5.3125 8 6 C8 6.99 8 7.98 8 9 C5.69 9 3.38 9 1 9 C-0.4783226 6.04335481 -0.06032783 3.25770263 0 0 Z " fill="#EAB34B" transform="translate(61,9)"/>
<path d="M0 0 C0.33 1.98 0.66 3.96 1 6 C-0.65 5.67 -2.3 5.34 -4 5 C-4.33 5.66 -4.66 6.32 -5 7 C-5.66 4.69 -6.32 2.38 -7 0 C-4.3333581 -1.33332095 -2.83319697 -0.67102033 0 0 Z " fill="#332D70" transform="translate(22,45)"/>
<path d="M0 0 C0.99 0.33 1.98 0.66 3 1 C3 5.62 3 10.24 3 15 C2.01 14.67 1.02 14.34 0 14 C0 9.38 0 4.76 0 0 Z " fill="#EB7025" transform="translate(175,39)"/>
<path d="M0 0 C0.33 0 0.66 0 1 0 C1.13277344 0.75925781 1.26554688 1.51851562 1.40234375 2.30078125 C1.57894531 3.29464844 1.75554687 4.28851563 1.9375 5.3125 C2.19853516 6.79169922 2.19853516 6.79169922 2.46484375 8.30078125 C2.95746847 11.08189213 2.95746847 11.08189213 4 14 C2.02 14.33 0.04 14.66 -2 15 C-2.33 13.68 -2.66 12.36 -3 11 C-2.34 11 -1.68 11 -1 11 C-0.67 7.37 -0.34 3.74 0 0 Z " fill="#E57931" transform="translate(178,42)"/>
<path d="M0 0 C3.37503669 1.1858237 5.64722731 2.27573689 8 5 C7.01 5 6.02 5 5 5 C5 5.66 5 6.32 5 7 C3.66666667 7.66666667 2.33333333 8.33333333 1 9 C-1.125 3.375 -1.125 3.375 0 0 Z " fill="#383533" transform="translate(288,18)"/>
<path d="M0 0 C0.99 0.33 1.98 0.66 3 1 C4.6875 4.5625 4.6875 4.5625 6 8 C4.02 8.33 2.04 8.66 0 9 C-0.625 6.625 -0.625 6.625 -1 4 C-0.34 3.34 0.32 2.68 1 2 C0.67 1.34 0.34 0.68 0 0 Z " fill="#3C3282" transform="translate(15,36)"/>
<path d="M0 0 C-0.33 1.65 -0.66 3.3 -1 5 C-3.31 4.67 -5.62 4.34 -8 4 C-8.33 3.01 -8.66 2.02 -9 1 C-5.92677456 0.08941469 -3.19902639 -0.08886184 0 0 Z " fill="#372C7C" transform="translate(52,67)"/>
<path d="M0 0 C-1 3 -1 3 -3 4 C-3.65772428 7.02934491 -3.65772428 7.02934491 -4 10 C-4.99 10 -5.98 10 -7 10 C-7 7.03 -7 4.06 -7 1 C-3 0 -3 0 0 0 Z " fill="#313131" transform="translate(60,76)"/>
<path d="M0 0 C0 0.66 0 1.32 0 2 C-4.75 3.125 -4.75 3.125 -7 2 C-7 3.65 -7 5.3 -7 7 C-7.99 7.495 -7.99 7.495 -9 8 C-9 7.01 -9 6.02 -9 5 C-9.99 4.67 -10.98 4.34 -12 4 C-11.01 3.67 -10.02 3.34 -9 3 C-9 2.34 -9 1.68 -9 1 C-5.846632 0.29925156 -3.27275026 0 0 0 Z " fill="#404040" transform="translate(130,76)"/>
<path d="M0 0 C0.99 0 1.98 0 3 0 C3.84454356 3.37817425 4.10844919 5.67465243 3 9 C2.01 9 1.02 9 0 9 C-1.15941038 5.52176885 -0.70820884 3.54104422 0 0 Z " fill="#2D2D2D" transform="translate(41,77)"/>
<path d="M0 0 C2.475 0.495 2.475 0.495 5 1 C4.67 1.66 4.34 2.32 4 3 C4.66 3.33 5.32 3.66 6 4 C6.625 6.5625 6.625 6.5625 7 9 C5.68 9 4.36 9 3 9 C2.01 6.03 1.02 3.06 0 0 Z " fill="#2B2B2A" transform="translate(115,77)"/>
<path d="M0 0 C0.99 0 1.98 0 3 0 C2.67 2.97 2.34 5.94 2 9 C1.34 9 0.68 9 0 9 C-1.3950848 6.70221327 -2.07438619 5.5207033 -1.6875 2.8125 C-1 1 -1 1 0 0 Z " fill="#E57412" transform="translate(189,59)"/>
<path d="M0 0 C0 1.65 0 3.3 0 5 C-2.64 5.33 -5.28 5.66 -8 6 C-7.875 4.125 -7.875 4.125 -7 2 C-2.2 0 -2.2 0 0 0 Z " fill="#372C70" transform="translate(154,24)"/>
<path d="M0 0 C0.33 0 0.66 0 1 0 C1.125 2.375 1.125 2.375 1 5 C-1 7 -1 7 -4.625 7.125 C-5.73875 7.08375 -6.8525 7.0425 -8 7 C-7.67 6.01 -7.34 5.02 -7 4 C-3.535 3.505 -3.535 3.505 0 3 C0 2.01 0 1.02 0 0 Z " fill="#444444" transform="translate(53,79)"/>
<path d="M0 0 C2.97 0.495 2.97 0.495 6 1 C6 2.65 6 4.3 6 6 C4.35 6 2.7 6 1 6 C0.67 4.02 0.34 2.04 0 0 Z " fill="#434344" transform="translate(105,76)"/>
<path d="M0 0 C2.64 0 5.28 0 8 0 C8.33 1.65 8.66 3.3 9 5 C8.34 5 7.68 5 7 5 C7 4.34 7 3.68 7 3 C5.02 3 3.04 3 1 3 C0.67 2.01 0.34 1.02 0 0 Z " fill="#313032" transform="translate(22,73)"/>
<path d="M0 0 C2.97 0 5.94 0 9 0 C9 1.98 9 3.96 9 6 C6.69 6 4.38 6 2 6 C3.32 5.67 4.64 5.34 6 5 C6 3.68 6 2.36 6 1 C4.02 1 2.04 1 0 1 C0 0.67 0 0.34 0 0 Z " fill="#D6722F" transform="translate(232,24)"/>
<path d="M0 0 C0.99 0 1.98 0 3 0 C4.23076923 5.41538462 4.23076923 5.41538462 3.0625 8.375 C2.711875 8.91125 2.36125 9.4475 2 10 C0 8 0 8 -0.1953125 6.0546875 C-0.13020833 4.03645833 -0.06510417 2.01822917 0 0 Z " fill="#E6701E" transform="translate(265,25)"/>
<path d="M0 0 C0.33 0.66 0.66 1.32 1 2 C0.67 2.99 0.34 3.98 0 5 C1.32 5.33 2.64 5.66 4 6 C3.67 6.33 3.34 6.66 3 7 C2.76924918 8.34747084 2.58846937 9.70377565 2.4375 11.0625 C2.293125 12.361875 2.14875 13.66125 2 15 C1.67 15 1.34 15 1 15 C1 12.36 1 9.72 1 7 C-0.32 6.34 -1.64 5.68 -3 5 C-2.01 3.35 -1.02 1.7 0 0 Z " fill="#DC7C3B" transform="translate(230,25)"/>
<path d="M0 0 C0.33 0 0.66 0 1 0 C1.19294408 4.82360189 0.75747614 8.49646738 -1 13 C-1.66 12.67 -2.32 12.34 -3 12 C-3 10.02 -3 8.04 -3 6 C-2.01 6 -1.02 6 0 6 C0 4.02 0 2.04 0 0 Z " fill="#D37833" transform="translate(277,74)"/>
<path d="M0 0 C2 3 2 3 2 6 C0 7.6875 0 7.6875 -2 9 C-2.66 7.02 -3.32 5.04 -4 3 C-2.68 2.67 -1.36 2.34 0 2 C0 1.34 0 0.68 0 0 Z " fill="#332973" transform="translate(15,33)"/>
<path d="M0 0 C1.2065625 0.0309375 1.2065625 0.0309375 2.4375 0.0625 C2.1075 3.0325 1.7775 6.0025 1.4375 9.0625 C0.1175 8.0725 -1.2025 7.0825 -2.5625 6.0625 C-1.9025 6.0625 -1.2425 6.0625 -0.5625 6.0625 C-0.5625 5.0725 -0.5625 4.0825 -0.5625 3.0625 C-1.5525 2.4025 -2.5425 1.7425 -3.5625 1.0625 C-2.5625 0.0625 -2.5625 0.0625 0 0 Z " fill="#D17A35" transform="translate(284.5625,23.9375)"/>
<path d="M0 0 C0.86625 0.2784375 0.86625 0.2784375 1.75 0.5625 C4.20692525 1.04023546 5.64397534 0.75729364 8 0 C7.67 1.32 7.34 2.64 7 4 C5.02 4 3.04 4 1 4 C0.67 2.68 0.34 1.36 0 0 Z " fill="#404040" transform="translate(164,82)"/>
<path d="M0 0 C1.32 0 2.64 0 4 0 C4 1.65 4 3.3 4 5 C2.02 5 0.04 5 -2 5 C-1.34 3.35 -0.68 1.7 0 0 Z " fill="#3A3175" transform="translate(48,25)"/>
<path d="M0 0 C1.65 0.33 3.3 0.66 5 1 C5 1.99 5 2.98 5 4 C4.01 4.66 3.02 5.32 2 6 C1.67 5.67 1.34 5.34 1 5 C0.34 4.67 -0.32 4.34 -1 4 C-0.67 2.68 -0.34 1.36 0 0 Z " fill="#352C73" transform="translate(133,33)"/>
<path d="M0 0 C1.98 0.495 1.98 0.495 4 1 C3.67 2.65 3.34 4.3 3 6 C2.01 6 1.02 6 0 6 C0 7.98 0 9.96 0 12 C-0.33 12 -0.66 12 -1 12 C-1.08159574 7.83861737 -0.98248524 4.0527516 0 0 Z " fill="#DF7626" transform="translate(281,26)"/>
<path d="M0 0 C0.99 0 1.98 0 3 0 C3.33 1.65 3.66 3.3 4 5 C1.69 5 -0.62 5 -3 5 C-3.33 3.68 -3.66 2.36 -4 1 C-2.68 1.33 -1.36 1.66 0 2 C0 1.34 0 0.68 0 0 Z " fill="#484442" transform="translate(294,23)"/>
<path d="M0 0 C1.32 0.33 2.64 0.66 4 1 C3.67 2.32 3.34 3.64 3 5 C3 4.01 3 3.02 3 2 C2.34 2 1.68 2 1 2 C1 4.31 1 6.62 1 9 C0.34 9 -0.32 9 -1 9 C-1.33 6.69 -1.66 4.38 -2 2 C-1.34 2 -0.68 2 0 2 C0 1.34 0 0.68 0 0 Z " fill="#EBC24F" transform="translate(60,7)"/>
<path d="M0 0 C0.66 0.33 1.32 0.66 2 1 C2 3.64 2 6.28 2 9 C0.68 9 -0.64 9 -2 9 C-1.125 2.25 -1.125 2.25 0 0 Z " fill="#3A3636" transform="translate(298,17)"/>
<path d="M0 0 C0.66 0.66 1.32 1.32 2 2 C1.625 4.125 1.625 4.125 1 6 C-0.32 6 -1.64 6 -3 6 C-3 4.68 -3 3.36 -3 2 C-2.01 1.34 -1.02 0.68 0 0 Z " fill="#3B308F" transform="translate(66,30)"/>
<path d="M0 0 C0.99 0 1.98 0 3 0 C3 1.32 3 2.64 3 4 C3.99 4.33 4.98 4.66 6 5 C2.25 6.125 2.25 6.125 0 5 C0 3.35 0 1.7 0 0 Z " fill="#EE7121" transform="translate(231,48)"/>
<path d="M0 0 C0.99 0.33 1.98 0.66 3 1 C1.68 1.33 0.36 1.66 -1 2 C-1 3.65 -1 5.3 -1 7 C-0.34 7 0.32 7 1 7 C1 7.66 1 8.32 1 9 C-0.32 9 -1.64 9 -3 9 C-2.4140625 2.84765625 -2.4140625 2.84765625 -2 1 C-1.34 0.67 -0.68 0.34 0 0 Z " fill="#434344" transform="translate(135,76)"/>
<path d="M0 0 C-0.99 0.495 -0.99 0.495 -2 1 C-2 1.66 -2 2.32 -2 3 C-3.98 3 -5.96 3 -8 3 C-8 2.34 -8 1.68 -8 1 C-4.93251126 -0.86240388 -3.40254489 -1.2151946 0 0 Z " fill="#3B3B3B" transform="translate(72,83)"/>
<path d="M0 0 C0.66 0.33 1.32 0.66 2 1 C2.33 0.67 2.66 0.34 3 0 C3.66 0.33 4.32 0.66 5 1 C5 1.99 5 2.98 5 4 C2.69 4.66 0.38 5.32 -2 6 C-1.34 4.02 -0.68 2.04 0 0 Z " fill="#423986" transform="translate(131,36)"/>
<path d="M0 0 C0.33 0 0.66 0 1 0 C1.02696365 1.79158489 1.04637917 3.58328473 1.0625 5.375 C1.07410156 6.37273438 1.08570312 7.37046875 1.09765625 8.3984375 C1 11 1 11 0 13 C-0.66 13 -1.32 13 -2 13 C-2.33 12.01 -2.66 11.02 -3 10 C-2.01 9.67 -1.02 9.34 0 9 C0 6.03 0 3.06 0 0 Z " fill="#453A83" transform="translate(84,26)"/>
<path d="M0 0 C0.66 0 1.32 0 2 0 C2.33 2.64 2.66 5.28 3 8 C2.01 7.67 1.02 7.34 0 7 C0 4.69 0 2.38 0 0 Z " fill="#EDAE33" transform="translate(61,9)"/>
<path d="M0 0 C0.66 0 1.32 0 2 0 C1.67 1.32 1.34 2.64 1 4 C0.34 4 -0.32 4 -1 4 C-1.33 6.97 -1.66 9.94 -2 13 C-2.33 13 -2.66 13 -3 13 C-3.31563182 7.73946963 -2.66590937 4.55426184 0 0 Z " fill="#3C3571" transform="translate(4,2)"/>
<path d="M0 0 C0 0.99 0 1.98 0 3 C-1.98 3.33 -3.96 3.66 -6 4 C-6 3.01 -6 2.02 -6 1 C-4 0 -4 0 0 0 Z " fill="#414042" transform="translate(170,76)"/>
<path d="M0 0 C0.99 0 1.98 0 3 0 C2.67 1.32 2.34 2.64 2 4 C0.68 4.33 -0.64 4.66 -2 5 C-1.125 1.125 -1.125 1.125 0 0 Z " fill="#EE6C1B" transform="translate(201,73)"/>
<path d="M0 0 C0.33 0 0.66 0 1 0 C1.33 2.31 1.66 4.62 2 7 C2.99 7 3.98 7 5 7 C5 7.66 5 8.32 5 9 C3.35 9 1.7 9 0 9 C0 6.03 0 3.06 0 0 Z " fill="#302A66" transform="translate(107,62)"/>
<path d="M0 0 C0.99 0 1.98 0 3 0 C3 1.98 3 3.96 3 6 C2.01 6 1.02 6 0 6 C0 4.02 0 2.04 0 0 Z " fill="#3C3C3C" transform="translate(155,80)"/>
<path d="M0 0 C1.65 0.33 3.3 0.66 5 1 C5 1.99 5 2.98 5 4 C3.35 4 1.7 4 0 4 C-0.33 3.34 -0.66 2.68 -1 2 C-0.67 1.34 -0.34 0.68 0 0 Z " fill="#2B2C2C" transform="translate(92,76)"/>
<path d="M0 0 C1.32 0 2.64 0 4 0 C4 1.32 4 2.64 4 4 C2.35 3.67 0.7 3.34 -1 3 C-0.67 2.01 -0.34 1.02 0 0 Z " fill="#3B2E8C" transform="translate(13,0)"/>
<path d="M0 0 C0.99 0 1.98 0 3 0 C3.33 1.65 3.66 3.3 4 5 C3.34 5 2.68 5 2 5 C1.67 5.66 1.34 6.32 1 7 C0.67 4.69 0.34 2.38 0 0 Z " fill="#2B2B2B" transform="translate(62,79)"/>
<path d="M0 0 C0.66 1.32 1.32 2.64 2 4 C3.65 4 5.3 4 7 4 C7 4.33 7 4.66 7 5 C4.69 5.33 2.38 5.66 0 6 C-0.38218767 4.34385343 -0.71395102 2.67542976 -1 1 C-0.67 0.67 -0.34 0.34 0 0 Z " fill="#3C3C3D" transform="translate(22,74)"/>
<path d="M0 0 C4.875 1.75 4.875 1.75 6 4 C5.01 4 4.02 4 3 4 C3 4.66 3 5.32 3 6 C2.34 6 1.68 6 1 6 C0.67 4.02 0.34 2.04 0 0 Z " fill="#2F2C2C" transform="translate(290,19)"/>
<path d="M0 0 C0.99 0 1.98 0 3 0 C3 0.99 3 1.98 3 3 C2.01 3 1.02 3 0 3 C0 2.01 0 1.02 0 0 Z " fill="#414443" transform="translate(85,73)"/>
<path d="M0 0 C0.99 0 1.98 0 3 0 C3 0.99 3 1.98 3 3 C2.01 3 1.02 3 0 3 C0 2.01 0 1.02 0 0 Z " fill="#353535" transform="translate(41,73)"/>
</svg>
